<?xml version="1.0" encoding="UTF-8" standalone="no"?>
<svg xmlns="http://www.w3.org/2000/svg" xmlns:xlink="http://www.w3.org/1999/xlink" contentScriptType="application/ecmascript" contentStyleType="text/css" height="373px" preserveAspectRatio="none" style="width:1440px;height:373px;" version="1.1" viewBox="0 0 1440 373" width="1440px" zoomAndPan="magnify">
  <defs>
    <filter height="300%" id="fvimdg8meykcw" width="300%" x="-1" y="-1">
      <feGaussianBlur result="blurOut" stdDeviation="2.0"/>
      <feColorMatrix in="blurOut" result="blurOut2" type="matrix" values="0 0 0 0 0 0 0 0 0 0 0 0 0 0 0 0 0 0 .4 0"/>
      <feOffset dx="4.0" dy="4.0" in="blurOut2" result="blurOut3"/>
      <feBlend in="SourceGraphic" in2="blurOut3" mode="normal"/>
    </filter>
  </defs>
  <g>
    <!--MD5=[1953fa6b8b58377160c0ed406898b3cb]
cluster analyser-->
    <polygon fill="#FFFFFF" filter="url(#fvimdg8meykcw)" points="372,16,445,16,452,38.2969,712,38.2969,712,227,372,227,372,16" style="stroke: #000000; stroke-width: 1.5;"/>
    <line style="stroke: #000000; stroke-width: 1.5;" x1="372" x2="452" y1="38.2969" y2="38.2969"/>
    <text fill="#000000" font-family="sans-serif" font-size="14" font-weight="bold" lengthAdjust="spacingAndGlyphs" textLength="67" x="376" y="30.9951">analyser</text>
    <!--MD5=[77140a42179fe8241cde5d77dd05aadc]
cluster config-->
    <polygon fill="#FFFFFF" filter="url(#fvimdg8meykcw)" points="730,67,785,67,792,89.2969,1023,89.2969,1023,176,730,176,730,67" style="stroke: #000000; stroke-width: 1.5;"/>
    <line style="stroke: #000000; stroke-width: 1.5;" x1="730" x2="792" y1="89.2969" y2="89.2969"/>
    <text fill="#000000" font-family="sans-serif" font-size="14" font-weight="bold" lengthAdjust="spacingAndGlyphs" textLength="49" x="734" y="81.9951">config</text>
    <!--MD5=[a70b0d373322012744ecc119c63f921b]
cluster main-->
    <polygon fill="#FFFFFF" filter="url(#fvimdg8meykcw)" points="14,16,59,16,66,38.2969,354,38.2969,354,361,14,361,14,16" style="stroke: #000000; stroke-width: 1.5;"/>
    <line style="stroke: #000000; stroke-width: 1.5;" x1="14" x2="66" y1="38.2969" y2="38.2969"/>
    <text fill="#000000" font-family="sans-serif" font-size="14" font-weight="bold" lengthAdjust="spacingAndGlyphs" textLength="39" x="18" y="30.9951">main</text>
    <!--MD5=[4ef80439e1ef409f8f3a0ec422262701]
cluster server-->
    <polygon fill="#FFFFFF" filter="url(#fvimdg8meykcw)" points="1042,29,1099,29,1106,51.2969,1418,51.2969,1418,214,1042,214,1042,29" style="stroke: #000000; stroke-width: 1.5;"/>
    <line style="stroke: #000000; stroke-width: 1.5;" x1="1042" x2="1106" y1="51.2969" y2="51.2969"/>
    <text fill="#000000" font-family="sans-serif" font-size="14" font-weight="bold" lengthAdjust="spacingAndGlyphs" textLength="51" x="1046" y="43.9951">server</text>
    <!--MD5=[4154be8f48c3dd42300d5b2be4ae891b]
class analyser.AggregatorLogEntry-->
    <rect fill="#FEFECE" filter="url(#fvimdg8meykcw)" height="176.0469" id="analyser.AggregatorLogEntry" style="stroke: #A80036; stroke-width: 1.5;" width="155" x="548.5" y="43"/>
    <ellipse cx="563.5" cy="59" fill="#7FFFD4" rx="11" ry="11" style="stroke: #A80036; stroke-width: 1.0;"/>
    <path d="M562.7344,59.5625 Q560.875,58.8594 560.2266,58.0859 Q559.5781,57.3125 559.5781,56 Q559.5781,54.3125 560.6563,53.3438 Q561.7344,52.375 563.6094,52.375 Q564.4688,52.375 565.3203,52.5703 Q566.1719,52.7656 567.0156,53.1563 L567.0156,55.5469 Q566.2344,54.9844 565.4141,54.6953 Q564.5938,54.4063 563.7969,54.4063 Q562.9219,54.4063 562.4453,54.7656 Q561.9688,55.125 561.9688,55.7813 Q561.9688,56.2969 562.3125,56.6328 Q562.6563,56.9688 563.75,57.375 L564.8125,57.7813 Q566.2969,58.3281 567.0078,59.2344 Q567.7188,60.1406 567.7188,61.5156 Q567.7188,63.3906 566.6094,64.3125 Q565.5,65.2344 563.25,65.2344 Q562.3281,65.2344 561.4063,65.0156 Q560.4844,64.7969 559.625,64.375 L559.625,61.8438 Q560.5938,62.5313 561.5156,62.875 Q562.4375,63.2188 563.3281,63.2188 Q564.2344,63.2188 564.7344,62.8047 Q565.2344,62.3906 565.2344,61.6563 Q565.2344,61.0938 564.8984,60.6797 Q564.5625,60.2656 563.9375,60.0156 L562.7344,59.5625 Z "/>
    <text fill="#000000" font-family="sans-serif" font-size="12" lengthAdjust="spacingAndGlyphs" textLength="123" x="577.5" y="63.1543">AggregatorLogEntry</text>
    <line style="stroke: #A80036; stroke-width: 1.5;" x1="549.5" x2="702.5" y1="75" y2="75"/>
    <ellipse cx="559.5" cy="86" fill="none" rx="3" ry="3" style="stroke: #038048; stroke-width: 1.0;"/>
    <text fill="#000000" font-family="sans-serif" font-size="11" lengthAdjust="spacingAndGlyphs" textLength="66" x="568.5" y="89.2104">Level string</text>
    <ellipse cx="559.5" cy="98.8047" fill="none" rx="3" ry="3" style="stroke: #038048; stroke-width: 1.0;"/>
    <text fill="#000000" font-family="sans-serif" font-size="11" lengthAdjust="spacingAndGlyphs" textLength="64" x="568.5" y="102.0151">Time string</text>
    <ellipse cx="559.5" cy="111.6094" fill="none" rx="3" ry="3" style="stroke: #038048; stroke-width: 1.0;"/>
    <text fill="#000000" font-family="sans-serif" font-size="11" lengthAdjust="spacingAndGlyphs" textLength="85" x="568.5" y="114.8198">Message string</text>
    <ellipse cx="559.5" cy="124.4141" fill="none" rx="3" ry="3" style="stroke: #038048; stroke-width: 1.0;"/>
    <text fill="#000000" font-family="sans-serif" font-size="11" lengthAdjust="spacingAndGlyphs" textLength="64" x="568.5" y="127.6245">Type string</text>
    <ellipse cx="559.5" cy="137.2188" fill="none" rx="3" ry="3" style="stroke: #038048; stroke-width: 1.0;"/>
    <text fill="#000000" font-family="sans-serif" font-size="11" lengthAdjust="spacingAndGlyphs" textLength="65" x="568.5" y="140.4292">Error string</text>
    <ellipse cx="559.5" cy="150.0234" fill="none" rx="3" ry="3" style="stroke: #038048; stroke-width: 1.0;"/>
    <text fill="#000000" font-family="sans-serif" font-size="11" lengthAdjust="spacingAndGlyphs" textLength="66" x="568.5" y="153.2339">Topic string</text>
    <ellipse cx="559.5" cy="162.8281" fill="none" rx="3" ry="3" style="stroke: #038048; stroke-width: 1.0;"/>
    <text fill="#000000" font-family="sans-serif" font-size="11" lengthAdjust="spacingAndGlyphs" textLength="52" x="568.5" y="166.0386">Offset int</text>
    <ellipse cx="559.5" cy="175.6328" fill="none" rx="3" ry="3" style="stroke: #038048; stroke-width: 1.0;"/>
    <text fill="#000000" font-family="sans-serif" font-size="11" lengthAdjust="spacingAndGlyphs" textLength="71" x="568.5" y="178.8433">Group string</text>
    <ellipse cx="559.5" cy="188.4375" fill="none" rx="3" ry="3" style="stroke: #038048; stroke-width: 1.0;"/>
    <text fill="#000000" font-family="sans-serif" font-size="11" lengthAdjust="spacingAndGlyphs" textLength="90" x="568.5" y="191.6479">Organization int</text>
    <ellipse cx="559.5" cy="201.2422" fill="none" rx="3" ry="3" style="stroke: #038048; stroke-width: 1.0;"/>
    <text fill="#000000" font-family="sans-serif" font-size="11" lengthAdjust="spacingAndGlyphs" textLength="76" x="568.5" y="204.4526">Cluster string</text>
    <line style="stroke: #A80036; stroke-width: 1.5;" x1="549.5" x2="702.5" y1="211.0469" y2="211.0469"/>
    <!--MD5=[2f34c68acd734f71e3c9d4035fcc1abc]
class analyser.PipelineLogEntry-->
    <rect fill="#FEFECE" filter="url(#fvimdg8meykcw)" height="112.0234" id="analyser.PipelineLogEntry" style="stroke: #A80036; stroke-width: 1.5;" width="133" x="380.5" y="75"/>
    <ellipse cx="395.5" cy="91" fill="#7FFFD4" rx="11" ry="11" style="stroke: #A80036; stroke-width: 1.0;"/>
    <path d="M394.7344,91.5625 Q392.875,90.8594 392.2266,90.0859 Q391.5781,89.3125 391.5781,88 Q391.5781,86.3125 392.6563,85.3438 Q393.7344,84.375 395.6094,84.375 Q396.4688,84.375 397.3203,84.5703 Q398.1719,84.7656 399.0156,85.1563 L399.0156,87.5469 Q398.2344,86.9844 397.4141,86.6953 Q396.5938,86.4063 395.7969,86.4063 Q394.9219,86.4063 394.4453,86.7656 Q393.9688,87.125 393.9688,87.7813 Q393.9688,88.2969 394.3125,88.6328 Q394.6563,88.9688 395.75,89.375 L396.8125,89.7813 Q398.2969,90.3281 399.0078,91.2344 Q399.7188,92.1406 399.7188,93.5156 Q399.7188,95.3906 398.6094,96.3125 Q397.5,97.2344 395.25,97.2344 Q394.3281,97.2344 393.4063,97.0156 Q392.4844,96.7969 391.625,96.375 L391.625,93.8438 Q392.5938,94.5313 393.5156,94.875 Q394.4375,95.2188 395.3281,95.2188 Q396.2344,95.2188 396.7344,94.8047 Q397.2344,94.3906 397.2344,93.6563 Q397.2344,93.0938 396.8984,92.6797 Q396.5625,92.2656 395.9375,92.0156 L394.7344,91.5625 Z "/>
    <text fill="#000000" font-family="sans-serif" font-size="12" lengthAdjust="spacingAndGlyphs" textLength="101" x="409.5" y="95.1543">PipelineLogEntry</text>
    <line style="stroke: #A80036; stroke-width: 1.5;" x1="381.5" x2="512.5" y1="107" y2="107"/>
    <ellipse cx="391.5" cy="118" fill="none" rx="3" ry="3" style="stroke: #038048; stroke-width: 1.0;"/>
    <text fill="#000000" font-family="sans-serif" font-size="11" lengthAdjust="spacingAndGlyphs" textLength="66" x="400.5" y="121.2104">Level string</text>
    <ellipse cx="391.5" cy="130.8047" fill="none" rx="3" ry="3" style="stroke: #038048; stroke-width: 1.0;"/>
    <text fill="#000000" font-family="sans-serif" font-size="11" lengthAdjust="spacingAndGlyphs" textLength="64" x="400.5" y="134.0151">Time string</text>
    <ellipse cx="391.5" cy="143.6094" fill="none" rx="3" ry="3" style="stroke: #038048; stroke-width: 1.0;"/>
    <text fill="#000000" font-family="sans-serif" font-size="11" lengthAdjust="spacingAndGlyphs" textLength="69" x="400.5" y="146.8198">Name string</text>
    <ellipse cx="391.5" cy="156.4141" fill="none" rx="3" ry="3" style="stroke: #038048; stroke-width: 1.0;"/>
    <text fill="#000000" font-family="sans-serif" font-size="11" lengthAdjust="spacingAndGlyphs" textLength="87" x="400.5" y="159.6245">Filename string</text>
    <ellipse cx="391.5" cy="169.2188" fill="none" rx="3" ry="3" style="stroke: #038048; stroke-width: 1.0;"/>
    <text fill="#000000" font-family="sans-serif" font-size="11" lengthAdjust="spacingAndGlyphs" textLength="85" x="400.5" y="172.4292">Message string</text>
    <line style="stroke: #A80036; stroke-width: 1.5;" x1="381.5" x2="512.5" y1="179.0234" y2="179.0234"/>
    <!--MD5=[838e7fae94795c48d5ce0bb300ae2ced]
class config.OpenShiftConfig-->
    <rect fill="#FEFECE" filter="url(#fvimdg8meykcw)" height="73.6094" id="config.OpenShiftConfig" style="stroke: #A80036; stroke-width: 1.5;" width="130" x="885" y="94"/>
    <ellipse cx="900" cy="110" fill="#7FFFD4" rx="11" ry="11" style="stroke: #A80036; stroke-width: 1.0;"/>
    <path d="M899.2344,110.5625 Q897.375,109.8594 896.7266,109.0859 Q896.0781,108.3125 896.0781,107 Q896.0781,105.3125 897.1563,104.3438 Q898.2344,103.375 900.1094,103.375 Q900.9688,103.375 901.8203,103.5703 Q902.6719,103.7656 903.5156,104.1563 L903.5156,106.5469 Q902.7344,105.9844 901.9141,105.6953 Q901.0938,105.4063 900.2969,105.4063 Q899.4219,105.4063 898.9453,105.7656 Q898.4688,106.125 898.4688,106.7813 Q898.4688,107.2969 898.8125,107.6328 Q899.1563,107.9688 900.25,108.375 L901.3125,108.7813 Q902.7969,109.3281 903.5078,110.2344 Q904.2188,111.1406 904.2188,112.5156 Q904.2188,114.3906 903.1094,115.3125 Q902,116.2344 899.75,116.2344 Q898.8281,116.2344 897.9063,116.0156 Q896.9844,115.7969 896.125,115.375 L896.125,112.8438 Q897.0938,113.5313 898.0156,113.875 Q898.9375,114.2188 899.8281,114.2188 Q900.7344,114.2188 901.2344,113.8047 Q901.7344,113.3906 901.7344,112.6563 Q901.7344,112.0938 901.3984,111.6797 Q901.0625,111.2656 900.4375,111.0156 L899.2344,110.5625 Z "/>
    <text fill="#000000" font-family="sans-serif" font-size="12" lengthAdjust="spacingAndGlyphs" textLength="98" x="914" y="114.1543">OpenShiftConfig</text>
    <line style="stroke: #A80036; stroke-width: 1.5;" x1="886" x2="1014" y1="126" y2="126"/>
    <ellipse cx="896" cy="137" fill="none" rx="3" ry="3" style="stroke: #038048; stroke-width: 1.0;"/>
    <text fill="#000000" font-family="sans-serif" font-size="11" lengthAdjust="spacingAndGlyphs" textLength="58" x="905" y="140.2104">URL string</text>
    <ellipse cx="896" cy="149.8047" fill="none" rx="3" ry="3" style="stroke: #038048; stroke-width: 1.0;"/>
    <text fill="#000000" font-family="sans-serif" font-size="11" lengthAdjust="spacingAndGlyphs" textLength="75" x="905" y="153.0151">Project string</text>
    <line style="stroke: #A80036; stroke-width: 1.5;" x1="886" x2="1014" y1="159.6094" y2="159.6094"/>
    <!--MD5=[c5d8fc8c2a138d58d5b92c85e48de57d]
class config.ServerConfig-->
    <rect fill="#FEFECE" filter="url(#fvimdg8meykcw)" height="73.6094" id="config.ServerConfig" style="stroke: #A80036; stroke-width: 1.5;" width="111" x="738.5" y="94"/>
    <ellipse cx="754.4" cy="110" fill="#7FFFD4" rx="11" ry="11" style="stroke: #A80036; stroke-width: 1.0;"/>
    <path d="M753.6344,110.5625 Q751.775,109.8594 751.1266,109.0859 Q750.4781,108.3125 750.4781,107 Q750.4781,105.3125 751.5563,104.3438 Q752.6344,103.375 754.5094,103.375 Q755.3688,103.375 756.2203,103.5703 Q757.0719,103.7656 757.9156,104.1563 L757.9156,106.5469 Q757.1344,105.9844 756.3141,105.6953 Q755.4938,105.4063 754.6969,105.4063 Q753.8219,105.4063 753.3453,105.7656 Q752.8688,106.125 752.8688,106.7813 Q752.8688,107.2969 753.2125,107.6328 Q753.5563,107.9688 754.65,108.375 L755.7125,108.7813 Q757.1969,109.3281 757.9078,110.2344 Q758.6188,111.1406 758.6188,112.5156 Q758.6188,114.3906 757.5094,115.3125 Q756.4,116.2344 754.15,116.2344 Q753.2281,116.2344 752.3063,116.0156 Q751.3844,115.7969 750.525,115.375 L750.525,112.8438 Q751.4938,113.5313 752.4156,113.875 Q753.3375,114.2188 754.2281,114.2188 Q755.1344,114.2188 755.6344,113.8047 Q756.1344,113.3906 756.1344,112.6563 Q756.1344,112.0938 755.7984,111.6797 Q755.4625,111.2656 754.8375,111.0156 L753.6344,110.5625 Z "/>
    <text fill="#000000" font-family="sans-serif" font-size="12" lengthAdjust="spacingAndGlyphs" textLength="77" x="768.6" y="114.1543">ServerConfig</text>
    <line style="stroke: #A80036; stroke-width: 1.5;" x1="739.5" x2="848.5" y1="126" y2="126"/>
    <ellipse cx="749.5" cy="137" fill="none" rx="3" ry="3" style="stroke: #038048; stroke-width: 1.0;"/>
    <text fill="#000000" font-family="sans-serif" font-size="11" lengthAdjust="spacingAndGlyphs" textLength="82" x="758.5" y="140.2104">Address string</text>
    <ellipse cx="749.5" cy="149.8047" fill="none" rx="3" ry="3" style="stroke: #038048; stroke-width: 1.0;"/>
    <text fill="#000000" font-family="sans-serif" font-size="11" lengthAdjust="spacingAndGlyphs" textLength="85" x="758.5" y="153.0151">UseHTTPS bool</text>
    <line style="stroke: #A80036; stroke-width: 1.5;" x1="739.5" x2="848.5" y1="159.6094" y2="159.6094"/>
    <!--MD5=[a0fe35004afad6cdf93099f20d242ab5]
class main.AggregatorLogEntry-->
    <rect fill="#FEFECE" filter="url(#fvimdg8meykcw)" height="176.0469" id="main.AggregatorLogEntry" style="stroke: #A80036; stroke-width: 1.5;" width="155" x="22.5" y="43"/>
    <ellipse cx="37.5" cy="59" fill="#7FFFD4" rx="11" ry="11" style="stroke: #A80036; stroke-width: 1.0;"/>
    <path d="M36.7344,59.5625 Q34.875,58.8594 34.2266,58.0859 Q33.5781,57.3125 33.5781,56 Q33.5781,54.3125 34.6563,53.3438 Q35.7344,52.375 37.6094,52.375 Q38.4688,52.375 39.3203,52.5703 Q40.1719,52.7656 41.0156,53.1563 L41.0156,55.5469 Q40.2344,54.9844 39.4141,54.6953 Q38.5938,54.4063 37.7969,54.4063 Q36.9219,54.4063 36.4453,54.7656 Q35.9688,55.125 35.9688,55.7813 Q35.9688,56.2969 36.3125,56.6328 Q36.6563,56.9688 37.75,57.375 L38.8125,57.7813 Q40.2969,58.3281 41.0078,59.2344 Q41.7188,60.1406 41.7188,61.5156 Q41.7188,63.3906 40.6094,64.3125 Q39.5,65.2344 37.25,65.2344 Q36.3281,65.2344 35.4063,65.0156 Q34.4844,64.7969 33.625,64.375 L33.625,61.8438 Q34.5938,62.5313 35.5156,62.875 Q36.4375,63.2188 37.3281,63.2188 Q38.2344,63.2188 38.7344,62.8047 Q39.2344,62.3906 39.2344,61.6563 Q39.2344,61.0938 38.8984,60.6797 Q38.5625,60.2656 37.9375,60.0156 L36.7344,59.5625 Z "/>
    <text fill="#000000" font-family="sans-serif" font-size="12" lengthAdjust="spacingAndGlyphs" textLength="123" x="51.5" y="63.1543">AggregatorLogEntry</text>
    <line style="stroke: #A80036; stroke-width: 1.5;" x1="23.5" x2="176.5" y1="75" y2="75"/>
    <ellipse cx="33.5" cy="86" fill="none" rx="3" ry="3" style="stroke: #038048; stroke-width: 1.0;"/>
    <text fill="#000000" font-family="sans-serif" font-size="11" lengthAdjust="spacingAndGlyphs" textLength="66" x="42.5" y="89.2104">Level string</text>
    <ellipse cx="33.5" cy="98.8047" fill="none" rx="3" ry="3" style="stroke: #038048; stroke-width: 1.0;"/>
    <text fill="#000000" font-family="sans-serif" font-size="11" lengthAdjust="spacingAndGlyphs" textLength="64" x="42.5" y="102.0151">Time string</text>
    <ellipse cx="33.5" cy="111.6094" fill="none" rx="3" ry="3" style="stroke: #038048; stroke-width: 1.0;"/>
    <text fill="#000000" font-family="sans-serif" font-size="11" lengthAdjust="spacingAndGlyphs" textLength="85" x="42.5" y="114.8198">Message string</text>
    <ellipse cx="33.5" cy="124.4141" fill="none" rx="3" ry="3" style="stroke: #038048; stroke-width: 1.0;"/>
    <text fill="#000000" font-family="sans-serif" font-size="11" lengthAdjust="spacingAndGlyphs" textLength="64" x="42.5" y="127.6245">Type string</text>
    <ellipse cx="33.5" cy="137.2188" fill="none" rx="3" ry="3" style="stroke: #038048; stroke-width: 1.0;"/>
    <text fill="#000000" font-family="sans-serif" font-size="11" lengthAdjust="spacingAndGlyphs" textLength="65" x="42.5" y="140.4292">Error string</text>
    <ellipse cx="33.5" cy="150.0234" fill="none" rx="3" ry="3" style="stroke: #038048; stroke-width: 1.0;"/>
    <text fill="#000000" font-family="sans-serif" font-size="11" lengthAdjust="spacingAndGlyphs" textLength="66" x="42.5" y="153.2339">Topic string</text>
    <ellipse cx="33.5" cy="162.8281" fill="none" rx="3" ry="3" style="stroke: #038048; stroke-width: 1.0;"/>
    <text fill="#000000" font-family="sans-serif" font-size="11" lengthAdjust="spacingAndGlyphs" textLength="52" x="42.5" y="166.0386">Offset int</text>
    <ellipse cx="33.5" cy="175.6328" fill="none" rx="3" ry="3" style="stroke: #038048; stroke-width: 1.0;"/>
    <text fill="#000000" font-family="sans-serif" font-size="11" lengthAdjust="spacingAndGlyphs" textLength="71" x="42.5" y="178.8433">Group string</text>
    <ellipse cx="33.5" cy="188.4375" fill="none" rx="3" ry="3" style="stroke: #038048; stroke-width: 1.0;"/>
    <text fill="#000000" font-family="sans-serif" font-size="11" lengthAdjust="spacingAndGlyphs" textLength="90" x="42.5" y="191.6479">Organization int</text>
    <ellipse cx="33.5" cy="201.2422" fill="none" rx="3" ry="3" style="stroke: #038048; stroke-width: 1.0;"/>
    <text fill="#000000" font-family="sans-serif" font-size="11" lengthAdjust="spacingAndGlyphs" textLength="76" x="42.5" y="204.4526">Cluster string</text>
    <line style="stroke: #A80036; stroke-width: 1.5;" x1="23.5" x2="176.5" y1="211.0469" y2="211.0469"/>
    <!--MD5=[ee55acbd6dd7042d493d72d650859b31]
class main.PipelineLogEntry-->
    <rect fill="#FEFECE" filter="url(#fvimdg8meykcw)" height="112.0234" id="main.PipelineLogEntry" style="stroke: #A80036; stroke-width: 1.5;" width="133" x="212.5" y="75"/>
    <ellipse cx="227.5" cy="91" fill="#7FFFD4" rx="11" ry="11" style="stroke: #A80036; stroke-width: 1.0;"/>
    <path d="M226.7344,91.5625 Q224.875,90.8594 224.2266,90.0859 Q223.5781,89.3125 223.5781,88 Q223.5781,86.3125 224.6563,85.3438 Q225.7344,84.375 227.6094,84.375 Q228.4688,84.375 229.3203,84.5703 Q230.1719,84.7656 231.0156,85.1563 L231.0156,87.5469 Q230.2344,86.9844 229.4141,86.6953 Q228.5938,86.4063 227.7969,86.4063 Q226.9219,86.4063 226.4453,86.7656 Q225.9688,87.125 225.9688,87.7813 Q225.9688,88.2969 226.3125,88.6328 Q226.6563,88.9688 227.75,89.375 L228.8125,89.7813 Q230.2969,90.3281 231.0078,91.2344 Q231.7188,92.1406 231.7188,93.5156 Q231.7188,95.3906 230.6094,96.3125 Q229.5,97.2344 227.25,97.2344 Q226.3281,97.2344 225.4063,97.0156 Q224.4844,96.7969 223.625,96.375 L223.625,93.8438 Q224.5938,94.5313 225.5156,94.875 Q226.4375,95.2188 227.3281,95.2188 Q228.2344,95.2188 228.7344,94.8047 Q229.2344,94.3906 229.2344,93.6563 Q229.2344,93.0938 228.8984,92.6797 Q228.5625,92.2656 227.9375,92.0156 L226.7344,91.5625 Z "/>
    <text fill="#000000" font-family="sans-serif" font-size="12" lengthAdjust="spacingAndGlyphs" textLength="101" x="241.5" y="95.1543">PipelineLogEntry</text>
    <line style="stroke: #A80036; stroke-width: 1.5;" x1="213.5" x2="344.5" y1="107" y2="107"/>
    <ellipse cx="223.5" cy="118" fill="none" rx="3" ry="3" style="stroke: #038048; stroke-width: 1.0;"/>
    <text fill="#000000" font-family="sans-serif" font-size="11" lengthAdjust="spacingAndGlyphs" textLength="66" x="232.5" y="121.2104">Level string</text>
    <ellipse cx="223.5" cy="130.8047" fill="none" rx="3" ry="3" style="stroke: #038048; stroke-width: 1.0;"/>
    <text fill="#000000" font-family="sans-serif" font-size="11" lengthAdjust="spacingAndGlyphs" textLength="64" x="232.5" y="134.0151">Time string</text>
    <ellipse cx="223.5" cy="143.6094" fill="none" rx="3" ry="3" style="stroke: #038048; stroke-width: 1.0;"/>
    <text fill="#000000" font-family="sans-serif" font-size="11" lengthAdjust="spacingAndGlyphs" textLength="69" x="232.5" y="146.8198">Name string</text>
    <ellipse cx="223.5" cy="156.4141" fill="none" rx="3" ry="3" style="stroke: #038048; stroke-width: 1.0;"/>
    <text fill="#000000" font-family="sans-serif" font-size="11" lengthAdjust="spacingAndGlyphs" textLength="87" x="232.5" y="159.6245">Filename string</text>
    <ellipse cx="223.5" cy="169.2188" fill="none" rx="3" ry="3" style="stroke: #038048; stroke-width: 1.0;"/>
    <text fill="#000000" font-family="sans-serif" font-size="11" lengthAdjust="spacingAndGlyphs" textLength="85" x="232.5" y="172.4292">Message string</text>
    <line style="stroke: #A80036; stroke-width: 1.5;" x1="213.5" x2="344.5" y1="179.0234" y2="179.0234"/>
    <!--MD5=[3a843b65cab97716f8810b0e6ba3580f]
class main.simpleCommand-->
    <rect fill="#FEFECE" filter="url(#fvimdg8meykcw)" height="73.6094" id="main.simpleCommand" style="stroke: #A80036; stroke-width: 1.5;" width="133" x="33.5" y="279"/>
    <ellipse cx="48.5" cy="295" fill="#7FFFD4" rx="11" ry="11" style="stroke: #A80036; stroke-width: 1.0;"/>
    <path d="M47.7344,295.5625 Q45.875,294.8594 45.2266,294.0859 Q44.5781,293.3125 44.5781,292 Q44.5781,290.3125 45.6563,289.3438 Q46.7344,288.375 48.6094,288.375 Q49.4688,288.375 50.3203,288.5703 Q51.1719,288.7656 52.0156,289.1563 L52.0156,291.5469 Q51.2344,290.9844 50.4141,290.6953 Q49.5938,290.4063 48.7969,290.4063 Q47.9219,290.4063 47.4453,290.7656 Q46.9688,291.125 46.9688,291.7813 Q46.9688,292.2969 47.3125,292.6328 Q47.6563,292.9688 48.75,293.375 L49.8125,293.7813 Q51.2969,294.3281 52.0078,295.2344 Q52.7188,296.1406 52.7188,297.5156 Q52.7188,299.3906 51.6094,300.3125 Q50.5,301.2344 48.25,301.2344 Q47.3281,301.2344 46.4063,301.0156 Q45.4844,300.7969 44.625,300.375 L44.625,297.8438 Q45.5938,298.5313 46.5156,298.875 Q47.4375,299.2188 48.3281,299.2188 Q49.2344,299.2188 49.7344,298.8047 Q50.2344,298.3906 50.2344,297.6563 Q50.2344,297.0938 49.8984,296.6797 Q49.5625,296.2656 48.9375,296.0156 L47.7344,295.5625 Z "/>
    <text fill="#000000" font-family="sans-serif" font-size="12" lengthAdjust="spacingAndGlyphs" textLength="101" x="62.5" y="299.1543">simpleCommand</text>
    <line style="stroke: #A80036; stroke-width: 1.5;" x1="34.5" x2="165.5" y1="311" y2="311"/>
    <rect fill="none" height="6" style="stroke: #C82930; stroke-width: 1.0;" width="6" x="41.5" y="319"/>
    <text fill="#000000" font-family="sans-serif" font-size="11" lengthAdjust="spacingAndGlyphs" textLength="69" x="53.5" y="325.2104">prefix string</text>
    <line style="stroke: #A80036; stroke-width: 1.5;" x1="34.5" x2="165.5" y1="331.8047" y2="331.8047"/>
    <rect fill="#F24D5C" height="6" style="stroke: #C82930; stroke-width: 1.0;" width="6" x="41.5" y="339.8047"/>
    <text fill="#000000" font-family="sans-serif" font-size="11" lengthAdjust="spacingAndGlyphs" textLength="43" x="53.5" y="346.0151">handler</text>
    <text fill="#0000FF" font-family="sans-serif" font-size="11" lengthAdjust="spacingAndGlyphs" textLength="24" x="100.5" y="346.0151">func</text>
    <text fill="#000000" font-family="sans-serif" font-size="11" lengthAdjust="spacingAndGlyphs" textLength="8" x="124.5" y="346.0151">()</text>
    <!--MD5=[2156ddef2cf852b6f26baae7777359cd]
class server.HTTPServer-->
    <rect fill="#FEFECE" filter="url(#fvimdg8meykcw)" height="150.4375" id="server.HTTPServer" style="stroke: #A80036; stroke-width: 1.5;" width="360" x="1050" y="56"/>
    <ellipse cx="1191.25" cy="72" fill="#7FFFD4" rx="11" ry="11" style="stroke: #A80036; stroke-width: 1.0;"/>
    <path d="M1190.4844,72.5625 Q1188.625,71.8594 1187.9766,71.0859 Q1187.3281,70.3125 1187.3281,69 Q1187.3281,67.3125 1188.4063,66.3438 Q1189.4844,65.375 1191.3594,65.375 Q1192.2188,65.375 1193.0703,65.5703 Q1193.9219,65.7656 1194.7656,66.1563 L1194.7656,68.5469 Q1193.9844,67.9844 1193.1641,67.6953 Q1192.3438,67.4063 1191.5469,67.4063 Q1190.6719,67.4063 1190.1953,67.7656 Q1189.7188,68.125 1189.7188,68.7813 Q1189.7188,69.2969 1190.0625,69.6328 Q1190.4063,69.9688 1191.5,70.375 L1192.5625,70.7813 Q1194.0469,71.3281 1194.7578,72.2344 Q1195.4688,73.1406 1195.4688,74.5156 Q1195.4688,76.3906 1194.3594,77.3125 Q1193.25,78.2344 1191,78.2344 Q1190.0781,78.2344 1189.1563,78.0156 Q1188.2344,77.7969 1187.375,77.375 L1187.375,74.8438 Q1188.3438,75.5313 1189.2656,75.875 Q1190.1875,76.2188 1191.0781,76.2188 Q1191.9844,76.2188 1192.4844,75.8047 Q1192.9844,75.3906 1192.9844,74.6563 Q1192.9844,74.0938 1192.6484,73.6797 Q1192.3125,73.2656 1191.6875,73.0156 L1190.4844,72.5625 Z "/>
    <text fill="#000000" font-family="sans-serif" font-size="12" lengthAdjust="spacingAndGlyphs" textLength="69" x="1211.75" y="76.1543">HTTPServer</text>
    <line style="stroke: #A80036; stroke-width: 1.5;" x1="1051" x2="1409" y1="88" y2="88"/>
    <ellipse cx="1061" cy="99" fill="none" rx="3" ry="3" style="stroke: #038048; stroke-width: 1.0;"/>
    <text fill="#000000" font-family="sans-serif" font-size="11" lengthAdjust="spacingAndGlyphs" textLength="152" x="1070" y="102.2104">Config config.ServerConfig</text>
    <ellipse cx="1061" cy="111.8047" fill="none" rx="3" ry="3" style="stroke: #038048; stroke-width: 1.0;"/>
    <text fill="#000000" font-family="sans-serif" font-size="11" lengthAdjust="spacingAndGlyphs" textLength="100" x="1070" y="115.0151">Serv *http.Server</text>
    <line style="stroke: #A80036; stroke-width: 1.5;" x1="1051" x2="1409" y1="121.6094" y2="121.6094"/>
    <rect fill="#F24D5C" height="6" style="stroke: #C82930; stroke-width: 1.0;" width="6" x="1058" y="129.6094"/>
    <text fill="#000000" font-family="sans-serif" font-size="11" lengthAdjust="spacingAndGlyphs" textLength="334" x="1070" y="135.8198">mainEndpoint(writer http.ResponseWriter, _ *http.Request)</text>
    <text fill="#000000" font-family="sans-serif" font-size="11" lengthAdjust="spacingAndGlyphs" textLength="0" x="1074" y="148.6245"/>
    <ellipse cx="1061" cy="158.2188" fill="#84BE84" rx="3" ry="3" style="stroke: #038048; stroke-width: 1.0;"/>
    <text fill="#000000" font-family="sans-serif" font-size="11" lengthAdjust="spacingAndGlyphs" textLength="291" x="1070" y="161.4292">LogRequest(nextHandler http.Handler) http.Handler</text>
    <ellipse cx="1061" cy="171.0234" fill="#84BE84" rx="3" ry="3" style="stroke: #038048; stroke-width: 1.0;"/>
    <text fill="#000000" font-family="sans-serif" font-size="11" lengthAdjust="spacingAndGlyphs" textLength="209" x="1070" y="174.2339">Initialize(address string) http.Handler</text>
    <ellipse cx="1061" cy="183.8281" fill="#84BE84" rx="3" ry="3" style="stroke: #038048; stroke-width: 1.0;"/>
    <text fill="#000000" font-family="sans-serif" font-size="11" lengthAdjust="spacingAndGlyphs" textLength="68" x="1070" y="187.0386">Start() error</text>
    <ellipse cx="1061" cy="196.6328" fill="#84BE84" rx="3" ry="3" style="stroke: #038048; stroke-width: 1.0;"/>
    <text fill="#000000" font-family="sans-serif" font-size="11" lengthAdjust="spacingAndGlyphs" textLength="177" x="1070" y="199.8433">Stop(ctx context.Context) error</text>
    <!--MD5=[42f124d0a562702cb1d4ec80b903340b]
link main.AggregatorLogEntry to main.PipelineLogEntry-->
    <!--MD5=[7530a65acc03434fcb8f31856c45e72e]
link main.AggregatorLogEntry to main.simpleCommand-->
    <!--MD5=[0ac4b9217cd0b1a66cfbd4fa706fc2b2]
@startuml
namespace analyser {
    class AggregatorLogEntry << (S,Aquamarine) >> {
        + Level string
        + Time string
        + Message string
        + Type string
        + Error string
        + Topic string
        + Offset int
        + Group string
        + Organization int
        + Cluster string

    }
    class PipelineLogEntry << (S,Aquamarine) >> {
        + Level string
        + Time string
        + Name string
        + Filename string
        + Message string

    }
}


namespace config {
    class OpenShiftConfig << (S,Aquamarine) >> {
        + URL string
        + Project string

    }
    class ServerConfig << (S,Aquamarine) >> {
        + Address string
        + UseHTTPS bool

    }
}


namespace main {
    class AggregatorLogEntry << (S,Aquamarine) >> {
        + Level string
        + Time string
        + Message string
        + Type string
        + Error string
        + Topic string
        + Offset int
        + Group string
        + Organization int
        + Cluster string

    }
    class PipelineLogEntry << (S,Aquamarine) >> {
        + Level string
        + Time string
        + Name string
        + Filename string
        + Message string

    }
    class simpleCommand << (S,Aquamarine) >> {
        - prefix string
        - handler <font color=blue>func</font>() 

    }
}


namespace server {
    class HTTPServer << (S,Aquamarine) >> {
        + Config config.ServerConfig
        + Serv *http.Server

        - mainEndpoint(writer http.ResponseWriter, _ *http.Request) 

        + LogRequest(nextHandler http.Handler) http.Handler
        + Initialize(address string) http.Handler
        + Start() error
        + Stop(ctx context.Context) error

    }
}


@enduml

PlantUML version 1.2019.12(Sun Nov 03 11:24:54 CET 2019)
(GPL source distribution)
Java Runtime: OpenJDK Runtime Environment
JVM: OpenJDK 64-Bit Server VM
Java Version: 1.8.0_191-b12
Operating System: Linux
Default Encoding: UTF-8
Language: en
Country: US
-->
  </g>
</svg>
